<svg xmlns="http://www.w3.org/2000/svg" width="170.05" height="170.05" style="isolation:isolate"><defs><clipPath id="a"><path d="M0 0h170.05v170.05H0z"/></clipPath></defs><g clip-path="url(#a)"><clipPath id="b"><path fill="#FFF" d="M0 0v170.05h170.05V0H0z"/></clipPath><g clip-path="url(#b)"><path fill="#1ED760" d="M134.562 75.522c-26.994-16.031-71.52-17.505-97.289-9.684-4.139 1.256-8.515-1.081-9.768-5.218-1.255-4.141 1.079-8.514 5.22-9.772 29.582-8.979 78.756-7.245 109.832 11.202 3.722 2.21 4.943 7.017 2.737 10.733-2.208 3.722-7.019 4.949-10.732 2.739zm-.884 23.744c-1.894 3.073-5.912 4.037-8.981 2.15-22.505-13.833-56.822-17.841-83.447-9.759-3.452 1.043-7.099-.903-8.148-4.35-1.04-3.452.907-7.092 4.354-8.142 30.415-9.23 68.226-4.76 94.074 11.125 3.069 1.89 4.035 5.91 2.148 8.976zm-10.247 22.803c-1.505 2.468-4.718 3.241-7.177 1.737-19.665-12.019-44.417-14.733-73.567-8.075-2.809.644-5.609-1.116-6.249-3.925-.644-2.808 1.11-5.608 3.925-6.249 31.9-7.292 59.263-4.154 81.336 9.334 2.461 1.503 3.236 4.718 1.732 7.178zM85.025 1.282c-46.249 0-83.743 37.493-83.743 83.742 0 46.254 37.494 83.744 83.743 83.744 46.251 0 83.743-37.49 83.743-83.744 0-46.249-37.492-83.742-83.743-83.742z"/></g></g></svg>